<?xml version="1.0" standalone="no"?>
<!DOCTYPE svg PUBLIC "-//W3C//DTD SVG 20010904//EN"
 "http://www.w3.org/TR/2001/REC-SVG-20010904/DTD/svg10.dtd">
<svg version="1.0" xmlns="http://www.w3.org/2000/svg"
 width="920.000000pt" height="637.000000pt" viewBox="0 0 920.000000 637.000000"
 preserveAspectRatio="xMidYMid meet">

<g transform="translate(0.000000,637.000000) scale(0.100000,-0.100000)"
fill="#000000" stroke="none">
<path d="M3011 5378 c-881 -545 -1600 -992 -1599 -993 2 -1 267 -176 590 -389
l587 -386 168 108 c92 60 441 283 776 496 l607 388 191 -113 c154 -91 188
-114 177 -124 -7 -7 -350 -225 -763 -485 -412 -259 -754 -475 -758 -479 -4 -4
363 -240 817 -524 l824 -516 1578 999 c868 550 1581 1003 1586 1008 6 6 -3031
1919 -3158 1989 -20 11 -157 -71 -1623 -979z"/>
<path d="M1828 2389 l-3 -1250 -55 -22 c-153 -62 -284 -205 -333 -362 -30 -99
-30 -254 1 -345 63 -183 193 -313 377 -376 68 -23 97 -27 190 -27 124 -1 167
9 274 60 97 46 212 159 258 253 115 230 72 492 -109 672 -64 63 -187 138 -226
138 -14 0 -15 123 -11 1142 l4 1141 -182 113 -183 113 -2 -1250z"/>
<path d="M5591 2520 c-535 -347 -975 -630 -977 -630 -2 0 -455 276 -1007 614
-551 338 -1010 618 -1020 622 -16 6 -17 -28 -17 -575 l0 -582 31 -62 c45 -87
137 -222 223 -324 303 -362 736 -619 1227 -727 356 -79 801 -76 1123 9 521
136 994 486 1322 977 l74 110 0 599 c0 330 -1 599 -2 599 -2 0 -441 -284 -977
-630z"/>
</g>
</svg>
